<?xml version="1.0" standalone="no"?>
<!DOCTYPE svg PUBLIC "-//W3C//DTD SVG 20010904//EN"
 "http://www.w3.org/TR/2001/REC-SVG-20010904/DTD/svg10.dtd">
<svg version="1.0" xmlns="http://www.w3.org/2000/svg"
 width="300.000000pt" height="198.000000pt" viewBox="0 0 300.000000 198.000000"
 preserveAspectRatio="xMidYMid meet">
<metadata>
Created by potrace 1.10, written by Peter Selinger 2001-2011
</metadata>
<g transform="translate(0.000000,198.000000) scale(0.100000,-0.100000)"
fill="#CC5500" stroke="none">
<path d="M87 1761 c-71 -15 -108 -83 -70 -130 17 -21 32 -25 128 -33 160 -13
232 -41 384 -146 144 -100 260 -172 279 -172 18 0 15 -13 -8 -33 -47 -40 -1
-132 78 -155 54 -16 178 -14 227 3 22 8 40 15 40 15 0 0 0 -22 1 -50 0 -39 7
-59 31 -92 44 -62 68 -114 86 -190 15 -60 15 -70 1 -103 -11 -26 -14 -60 -11
-117 l4 -81 54 -52 c49 -47 60 -53 112 -59 32 -4 86 -4 121 -1 58 6 68 11 104
49 48 48 57 70 67 152 5 47 3 69 -11 100 -9 21 -16 50 -14 64 3 40 57 171 91
225 24 37 32 62 33 98 l1 48 35 -8 c52 -12 200 -8 242 6 21 7 49 26 64 44 22
26 25 38 21 74 -2 24 -1 46 4 49 13 8 11 48 -3 63 -11 10 -9 16 8 29 154 122
198 154 252 181 90 46 171 61 336 64 137 2 146 3 170 26 29 28 34 66 11 98
-25 36 -99 46 -279 40 -241 -8 -357 -45 -531 -171 -99 -72 -157 -102 -237
-122 -77 -20 -159 -14 -213 15 -36 19 -56 21 -220 21 -167 0 -184 -2 -220 -22
-35 -18 -56 -21 -155 -21 -139 0 -225 25 -365 104 -160 91 -263 138 -352 164
-93 27 -232 39 -296 26z m2783 -42 c53 -11 70 -29 51 -53 -8 -9 -55 -15 -169
-19 -233 -9 -312 -36 -467 -158 -109 -86 -230 -167 -262 -175 -12 -4 -23 -9
-23 -13 0 -3 30 -22 68 -41 76 -40 88 -68 41 -102 -55 -41 -234 -43 -292 -3
-31 21 -61 20 -52 -2 5 -10 7 -44 6 -76 -2 -45 -9 -70 -31 -105 -66 -107 -115
-267 -90 -297 17 -21 30 -84 18 -91 -5 -3 -7 -16 -4 -29 8 -32 -18 -88 -55
-120 -31 -26 -36 -27 -129 -23 l-97 3 -42 40 c-37 35 -42 44 -38 75 2 19 -1
42 -6 51 -7 11 -4 33 8 72 11 37 15 69 11 94 -14 75 -49 164 -88 224 -39 58
-40 62 -36 130 4 80 10 78 -92 40 -93 -34 -208 -25 -257 21 -38 35 -30 56 32
84 57 26 71 44 34 44 -48 0 -162 63 -337 187 -171 122 -255 154 -440 169 -93
8 -113 23 -73 56 19 14 41 18 115 18 164 0 277 -40 541 -189 144 -82 224 -104
380 -105 117 -1 135 1 177 22 45 22 56 24 215 20 148 -3 172 -5 198 -23 25
-17 45 -20 135 -20 129 1 181 19 311 109 190 131 250 158 404 182 102 15 269
17 335 3z"/>
</g>
</svg>
