<?xml version="1.0" standalone="no"?>
<!DOCTYPE svg PUBLIC "-//W3C//DTD SVG 20010904//EN"
 "http://www.w3.org/TR/2001/REC-SVG-20010904/DTD/svg10.dtd">
<svg version="1.0" xmlns="http://www.w3.org/2000/svg"
 width="200.000000pt" height="350.000000pt" viewBox="0 0 300.000000 450.000000"
 preserveAspectRatio="xMidYMid meet">
<metadata>
Created by potrace 1.10, written by Peter Selinger 2001-2011
</metadata>
<g transform="translate(0.000000,450.000000) scale(0.100000,-0.100000)"
fill="#fff" stroke="none">
<path d="M1443 4270 c-83 -19 -156 -87 -184 -170 -7 -19 -15 -37 -18 -40 -3
-3 -13 -18 -21 -35 -9 -16 -25 -31 -35 -33 -47 -7 -48 -11 -21 -46 l26 -35 0
-255 0 -256 -85 0 -85 0 0 -37 c0 -23 7 -45 20 -58 24 -25 24 -30 22 -287 l-2
-207 -107 -3 -108 -3 -3 -59 c-3 -49 1 -62 18 -81 l22 -23 1 -891 2 -891 -37
0 c-38 0 -38 0 -38 -40 0 -29 4 -40 15 -40 13 0 15 -32 15 -230 0 -223 -1
-230 -20 -230 -18 0 -20 -7 -20 -55 l0 -55 700 0 700 0 0 55 c0 48 -2 55 -20
55 -19 0 -20 7 -20 229 0 213 1 229 18 233 15 4 17 13 14 42 -4 34 -6 36 -41
36 l-36 0 3 892 3 893 25 26 c22 23 25 34 22 80 l-3 54 -115 3 -115 3 2 236
c2 222 3 237 23 258 13 13 20 35 20 58 l0 37 -85 0 -85 0 0 258 c0 240 2 259
20 282 27 34 25 48 -7 52 -29 3 -41 23 -89 136 -23 57 -94 118 -157 137 -54
16 -84 17 -134 5z m152 -35 c50 -20 96 -66 121 -120 l24 -50 -232 -3 c-127 -1
-234 0 -237 3 -3 4 8 32 24 63 57 109 184 154 300 107z m169 -220 l16 -25
-275 0 -275 0 12 25 11 25 247 0 248 0 16 -25z m54 -57 c-4 -10 -78 -14 -315
-16 -267 -2 -312 0 -323 13 -11 13 24 15 315 15 257 0 326 -3 323 -12z m-28
-298 l0 -260 -35 0 -36 0 3 138 c3 136 3 138 -27 192 -89 163 -308 155 -398
-14 -19 -36 -22 -57 -22 -178 l0 -138 -32 0 -33 0 0 260 0 260 290 0 290 0 0
-260z m-176 132 c47 -32 85 -99 88 -157 1 -22 1 -84 0 -137 l-2 -98 -200 0
-200 0 0 137 c0 118 3 143 21 180 51 105 193 142 293 75z m346 -437 l0 -25
-460 0 -460 0 0 25 0 25 460 0 460 0 0 -25z m-34 -61 c-3 -9 -6 -24 -6 -35 0
-18 -13 -19 -420 -19 -407 0 -420 1 -420 19 0 11 -3 26 -6 35 -6 14 36 16 426
16 390 0 432 -2 426 -16z m-776 -285 l0 -211 -22 6 c-13 3 -29 6 -35 6 -10 0
-13 48 -13 205 l0 205 35 0 35 0 0 -211z m160 6 l0 -205 -47 0 c-27 0 -58 -3
-70 -6 l-23 -6 0 211 0 211 70 0 70 0 0 -205z m110 -3 l0 -209 -45 0 -45 0 0
209 0 208 45 0 45 0 0 -208z m140 0 l0 -207 -57 2 -58 1 -3 206 -2 206 60 0
60 0 0 -208z m110 -1 l0 -209 -42 2 -43 2 -3 207 -2 207 45 0 45 0 0 -209z
m160 2 l0 -208 -70 0 -70 0 0 208 0 207 70 0 70 0 0 -207z m83 0 l-2 -208 -30
0 -31 -1 0 208 0 208 33 0 32 0 -2 -207z m235 -272 l3 -41 -645 0 -646 0 0 43
0 42 642 -2 643 -1 3 -41z m-30 -73 c-4 -10 -136 -14 -610 -16 -529 -2 -607 0
-618 13 -11 13 56 15 610 15 493 0 621 -3 618 -12z m-23 -551 c-1 -281 -2
-680 -3 -884 l-2 -373 -55 0 -55 0 0 181 0 182 -82 -6 c-46 -4 -100 -7 -120
-7 l-38 0 0 -175 0 -175 -60 0 -60 0 -2 176 -3 176 -115 2 -115 1 -3 -177 -2
-178 -60 0 -60 0 -2 178 -3 177 -120 -2 -120 -2 0 -175 0 -176 -58 0 -58 0 2
885 1 885 597 0 596 0 0 -513z m-965 -997 l0 -70 -47 0 -48 0 0 70 0 70 48 0
47 0 0 -70z m110 0 l0 -70 -45 0 -45 0 0 70 0 70 45 0 45 0 0 -70z m250 -5 l0
-75 -45 0 -45 0 0 75 0 75 45 0 45 0 0 -75z m110 0 l0 -75 -45 0 -45 0 0 75 0
75 45 0 45 0 0 -75z m256 53 c-3 -13 -6 -44 -6 -70 l0 -48 -45 0 -45 0 0 70 0
70 51 0 c48 0 51 -1 45 -22z m104 -48 l0 -70 -45 0 -45 0 0 70 0 70 45 0 45 0
0 -70z m-830 -175 l0 -85 -47 0 -48 0 0 85 0 85 48 0 47 0 0 -85z m110 0 l0
-85 -45 0 -45 0 0 85 0 85 45 0 45 0 0 -85z m236 75 c11 0 14 -19 14 -80 l0
-80 -45 0 -45 0 0 86 0 87 31 -7 c17 -3 38 -6 45 -6z m124 -81 l0 -79 -45 0
-45 0 0 78 c0 43 2 81 4 83 3 3 23 3 45 1 l41 -4 0 -79z m250 6 l0 -85 -45 0
-45 0 0 85 0 85 45 0 45 0 0 -85z m110 0 l0 -85 -45 0 -45 0 0 85 0 85 45 0
45 0 0 -85z m218 -127 c3 -17 -34 -18 -672 -18 -670 0 -676 0 -676 20 0 20 5
20 672 18 632 -3 673 -4 676 -20z m-38 -268 l0 -230 -640 0 -640 0 0 230 0
230 640 0 640 0 0 -230z m40 -285 l0 -35 -680 0 -680 0 0 35 0 35 680 0 680 0
0 -35z"/>
<path d="M1424 3776 c-138 -64 -138 -264 0 -327 93 -42 195 -8 242 83 18 35
18 131 -1 167 -28 56 -105 101 -170 101 -11 0 -43 -11 -71 -24z m184 -40 c52
-46 68 -111 30 -119 l-23 -4 23 -8 c12 -4 22 -15 22 -25 0 -42 -69 -113 -122
-126 -25 -5 -28 -3 -28 20 0 14 -4 26 -10 26 -5 0 -10 -12 -10 -26 0 -27 -4
-27 -65 -4 -30 12 -64 53 -75 91 -14 49 -13 58 10 52 11 -3 20 0 20 6 0 6 -9
11 -21 11 -17 0 -19 4 -13 23 21 69 74 117 128 117 22 0 26 -4 21 -19 -3 -11
-1 -22 5 -26 6 -4 10 4 10 18 0 13 3 26 6 30 9 9 67 -14 92 -37z"/>
<path d="M1561 3656 c-24 -18 -44 -24 -72 -23 -22 2 -39 -1 -39 -5 0 -4 4 -8
9 -8 5 0 11 -9 14 -20 7 -26 43 -26 57 -1 5 11 26 29 45 41 19 12 35 26 35 31
0 15 -14 10 -49 -15z"/>
<path d="M1015 2548 c-3 -7 -4 -87 -2 -178 l2 -165 123 -3 122 -3 -2 178 -3
178 -118 3 c-88 2 -119 -1 -122 -10z m115 -85 l0 -73 -47 0 -48 0 2 72 c1 40
2 73 2 73 1 0 21 0 46 0 l45 1 0 -73z m110 2 l0 -75 -45 0 -45 0 0 69 0 70 33
4 c17 2 38 5 45 5 9 2 12 -19 12 -73z m-110 -170 l0 -75 -45 0 -45 0 0 53 c0
28 -3 62 -6 75 -6 21 -3 22 45 22 l51 0 0 -75z m110 0 l0 -75 -45 0 -45 0 0
75 0 75 45 0 45 0 0 -75z"/>
<path d="M1380 2380 l0 -180 120 0 120 0 -2 178 -3 177 -117 3 -118 3 0 -181z
m110 85 l0 -75 -45 0 -45 0 0 75 0 75 45 0 45 0 0 -75z m110 0 l0 -75 -45 0
-45 0 0 75 0 75 45 0 45 0 0 -75z m-110 -170 l0 -75 -45 0 -45 0 0 75 0 75 45
0 45 0 0 -75z m110 0 l0 -75 -45 0 -45 0 0 75 0 75 45 0 45 0 0 -75z"/>
<path d="M1740 2380 l0 -180 120 0 120 0 0 180 0 180 -120 0 -120 0 0 -180z
m110 85 l0 -75 -45 0 -45 0 0 75 0 75 45 0 45 0 0 -75z m110 0 l0 -75 -45 0
-45 0 0 75 0 75 45 0 45 0 0 -75z m-110 -170 l0 -75 -45 0 -45 0 0 75 0 75 45
0 45 0 0 -75z m110 0 l0 -75 -45 0 -45 0 0 75 0 75 45 0 45 0 0 -75z"/>
<path d="M1018 2103 c-2 -4 -2 -86 0 -181 l4 -173 117 3 116 3 0 175 0 175
-117 3 c-64 1 -118 -1 -120 -5z m112 -90 l0 -73 -44 0 -44 0 -4 71 c-2 39 -2
72 -1 73 1 1 22 1 47 1 l46 0 0 -72z m79 67 c27 0 28 0 27 -70 l-1 -70 -42 0
-43 0 0 76 c0 65 2 75 16 70 9 -3 28 -6 43 -6z m-79 -235 l0 -75 -45 0 -45 0
0 75 0 75 45 0 45 0 0 -75z m103 -3 l2 -72 -42 0 -43 0 0 76 0 75 41 -3 41 -3
1 -73z"/>
<path d="M1380 1930 l0 -180 120 0 120 0 -2 178 -3 177 -117 3 -118 3 0 -181z
m110 85 l0 -75 -45 0 -45 0 0 75 0 75 45 0 45 0 0 -75z m110 0 l0 -75 -45 0
-45 0 0 75 0 75 45 0 45 0 0 -75z m-110 -170 l0 -75 -45 0 -45 0 0 75 0 75 45
0 45 0 0 -75z m110 0 l0 -75 -45 0 -45 0 0 75 0 75 45 0 45 0 0 -75z"/>
<path d="M1740 1930 l0 -180 120 0 120 0 0 180 0 180 -120 0 -120 0 0 -180z
m110 83 l0 -73 -45 0 -45 0 0 73 0 74 45 -1 45 -1 0 -72z m110 0 l0 -73 -45 0
-45 0 0 73 0 72 45 1 45 1 0 -74z m-110 -168 l0 -75 -45 0 -45 0 0 75 0 75 45
0 45 0 0 -75z m110 0 l0 -75 -45 0 -45 0 0 75 0 75 45 0 45 0 0 -75z"/>
<path d="M1017 1653 c-3 -4 -2 -86 1 -181 l5 -173 116 3 116 3 0 175 0 175
-117 3 c-64 1 -118 -1 -121 -5z m113 -89 l0 -75 -46 3 -46 3 0 65 c0 36 1 68
1 73 1 4 21 7 46 7 l45 0 0 -76z m110 1 l0 -75 -45 0 -45 0 0 75 0 75 45 0 45
0 0 -75z m-110 -170 l0 -75 -44 0 -44 0 -4 75 -3 75 48 0 47 0 0 -75z m108 3
l-3 -72 -42 -3 -43 -3 0 75 0 75 45 0 46 0 -3 -72z"/>
<path d="M1382 1483 l3 -178 75 -2 c41 -1 94 1 118 3 l42 5 0 175 0 174 -120
0 -120 0 2 -177z m108 82 l0 -75 -45 0 -45 0 0 75 0 75 45 0 45 0 0 -75z m110
0 l0 -75 -45 0 -45 0 0 75 0 75 45 0 45 0 0 -75z m0 -159 l0 -74 -41 -4 c-22
-2 -42 -2 -45 1 -2 2 -4 35 -4 72 l0 68 38 4 c20 2 40 4 45 5 4 1 7 -31 7 -72z
m-104 48 c-3 -9 -6 -40 -6 -70 l0 -54 -45 0 -45 0 0 70 0 70 51 0 c43 0 50 -3
45 -16z"/>
<path d="M1739 1613 c-1 -27 -2 -106 -3 -178 l-1 -130 80 -1 c44 -1 99 0 123
3 l42 5 0 174 0 174 -120 0 -120 0 -1 -47z m111 -48 l0 -75 -45 0 -45 0 0 75
0 75 45 0 45 0 0 -75z m110 0 l0 -75 -45 0 -45 0 0 75 0 75 45 0 45 0 0 -75z
m-110 -170 l0 -75 -45 0 -45 0 0 75 0 75 45 0 45 0 0 -75z m110 5 c0 -66 -1
-70 -22 -70 -13 0 -33 -3 -45 -6 -22 -6 -23 -4 -23 70 l0 76 45 0 45 0 0 -70z"/>
<path d="M1015 720 c-7 -12 -6 -176 2 -277 l5 -73 119 0 119 0 -2 178 -3 177
-117 2 c-65 1 -120 -2 -123 -7z m115 -90 l0 -70 -48 0 -47 0 0 70 0 70 48 0
47 0 0 -70z m110 2 c0 -38 -2 -71 -4 -73 -3 -3 -23 -3 -45 -1 l-41 4 0 69 0
69 45 0 45 0 0 -68z m-110 -167 l0 -75 -47 0 -48 0 0 75 0 75 48 0 47 0 0 -75z
m110 0 l0 -75 -45 0 -45 0 0 75 0 75 45 0 45 0 0 -75z"/>
<path d="M1386 723 c-3 -4 -6 -84 -6 -180 l0 -173 120 0 120 0 0 179 0 180
-114 0 c-63 0 -117 -3 -120 -6z m104 -75 c0 -31 3 -63 6 -72 5 -13 -2 -16 -45
-16 l-51 0 0 73 0 72 45 0 45 0 0 -57z m110 -18 l0 -70 -45 0 -45 0 0 70 0 70
45 0 45 0 0 -70z m-100 -165 l0 -75 -50 0 -50 0 0 75 0 75 50 0 50 0 0 -75z
m100 0 l0 -75 -45 0 -45 0 0 75 0 75 45 0 45 0 0 -75z"/>
<path d="M1740 550 l0 -180 120 0 120 0 -2 178 -3 177 -117 2 -118 2 0 -179z
m110 80 l0 -70 -51 0 c-43 0 -50 3 -45 16 3 9 6 40 6 70 l0 54 45 0 45 0 0
-70z m110 0 l0 -70 -45 0 -45 0 0 70 0 70 45 0 45 0 0 -70z m-110 -165 l0 -75
-45 0 -45 0 0 75 0 75 45 0 45 0 0 -75z m110 0 l0 -75 -45 0 -45 0 0 75 0 75
45 0 45 0 0 -75z"/>
</g>
</svg>
